<svg height="24" fill="#fff" viewBox="0 0 512 512" width="24" xmlns="http://www.w3.org/2000/svg">
    <g> 
        <path transform="scale (-1, 1)" transform-origin="center" d="m260.52 329.539a24 24 0 0 0 33.941 33.941l90.51-90.51a24 24 0 0 0 0-33.941l-90.51-90.509a24 24 0 0 0 -33.941 0 24 24 0 0 0 0 33.941l49.539 49.539h-262.059a24 24 0 0 0 -24 24 24 24 0 0 0 24 24h262.059z"/>
        <path transform="scale (-1, 1)" transform-origin="center" d="m448 24h-224a40 40 0 0 0 -40 40v32a24 24 0 0 0 48 0v-24h208v368h-208v-24a24 24 0 0 0 -48 0v32a40 40 0 0 0 40 40h224a40 40 0 0 0 40-40v-384a40 40 0 0 0 -40-40z"/>
    </g>
</svg>