<?xml version="1.0" encoding="UTF-8"?>
<svg xmlns="http://www.w3.org/2000/svg" fill="#00bfd6" data-name="Furniture and household" viewBox="0 0 64 64" width="40" height="40"><path d="M61.92,30.93a7.076,7.076,0,0,0-6.05-5.88,8.442,8.442,0,0,0-.87-.04V22A15.018,15.018,0,0,0,40,7H24A15.018,15.018,0,0,0,9,22v3.01a8.442,8.442,0,0,0-.87.04,7.076,7.076,0,0,0-6.05,5.88A6.95,6.95,0,0,0,7,38.7V52a3.009,3.009,0,0,0,3,3v6a1,1,0,0,0,1,1h3a1,1,0,0,0,.96-.73L16.75,55h30.5l1.79,6.27A1,1,0,0,0,50,62h3a1,1,0,0,0,1-1V55a3.009,3.009,0,0,0,3-3V38.7A6.95,6.95,0,0,0,61.92,30.93ZM11,22A13.012,13.012,0,0,1,24,9H40A13.012,13.012,0,0,1,53,22v3.3A6.976,6.976,0,0,0,48,32v3.18A3,3,0,0,0,47,35H17a3,3,0,0,0-1,.18V32a6.976,6.976,0,0,0-5-6.7ZM48,38v5H16V38a1,1,0,0,1,1-1H47A1,1,0,0,1,48,38ZM13.25,60H12V55h2.67ZM52,60H50.75l-1.42-5H52Zm3.83-23.08a1.008,1.008,0,0,0-.83.99V52a1,1,0,0,1-1,1H10a1,1,0,0,1-1-1V37.91a1.008,1.008,0,0,0-.83-.99,4.994,4.994,0,0,1,.2-9.88A4.442,4.442,0,0,1,9,27h.01a4.928,4.928,0,0,1,3.3,1.26A5.007,5.007,0,0,1,14,32V44a1,1,0,0,0,1,1H49a1,1,0,0,0,1-1V32a5.007,5.007,0,0,1,1.69-3.74,4.932,4.932,0,0,1,3.94-1.22,5.018,5.018,0,0,1,4.31,4.18v.01A4.974,4.974,0,0,1,55.83,36.92Z"/></svg>
