<svg fill="#00bfd6" enable-background="new 0 0 505.994 505.994" width="40" height="40" viewBox="0 0 505.994 505.994" xmlns="http://www.w3.org/2000/svg"><g><g><path  d="m216.784 280.57c0-26.935-21.913-48.848-48.848-48.848s-48.849 21.913-48.849 48.848h29.648c0-10.587 8.614-19.2 19.201-19.2s19.2 8.613 19.2 19.2z"/><path d="m338.058 231.721c-26.935 0-48.848 21.913-48.848 48.848h29.648c0-10.587 8.613-19.2 19.2-19.2s19.201 8.613 19.201 19.2h29.648c0-26.935-21.913-48.848-48.849-48.848z"/><path d="m252.997 367.32c-18.744 0-36.319-10.052-45.869-26.234l-25.534 15.066c14.856 25.176 42.216 40.815 71.402 40.815s56.546-15.639 71.402-40.815l-25.534-15.067c-9.548 16.182-27.124 26.235-45.867 26.235z"/><path d="m486.704 228.061c-9.442-9.431-21.299-15.667-34.169-18.109-27.794-85.888-108.42-145.023-199.538-145.023h-9.939c-23.868 0-43.286-19.419-43.286-43.286h-29.648c0 16.196 5.313 31.17 14.278 43.286h-9.393c-23.868 0-43.286-19.419-43.286-43.286h-29.648c0 32.213 20.999 59.596 50.02 69.226-45.899 25.234-81.875 67.29-98.635 119.083-12.87 2.442-24.73 8.68-34.18 18.12-12.433 12.446-19.28 28.984-19.28 46.568 0 17.368 6.7 33.754 18.867 46.141 9.509 9.681 21.518 16.069 34.593 18.548 27.792 85.888 108.418 145.022 199.537 145.022s171.744-59.134 199.537-145.022c13.075-2.479 25.084-8.867 34.593-18.548 12.167-12.387 18.867-28.773 18.867-46.141 0-17.584-6.847-34.122-19.29-46.579zm-45.85 82.771-11.125.211-2.905 10.741c-21.164 78.26-92.644 132.918-173.828 132.918s-152.663-54.657-173.826-132.918l-2.905-10.741-11.125-.211c-19.571-.37-35.493-16.605-35.493-36.192 0-9.671 3.767-18.768 10.595-25.604 6.659-6.652 15.501-10.413 24.895-10.589l11.127-.209 2.905-10.743c21.164-78.259 92.644-132.917 173.828-132.917 26.795 0 48.594 21.799 48.594 48.594s-21.799 48.595-48.594 48.595-48.594-21.799-48.594-48.594h-29.648c0 43.143 35.099 78.242 78.242 78.242s78.242-35.099 78.242-78.242c0-12.278-2.85-23.899-7.912-34.251 49.725 21.151 88.779 64.152 103.497 118.574l2.905 10.743 11.127.209c9.395.176 18.236 3.937 24.884 10.577 6.84 6.848 10.607 15.945 10.607 25.616-.001 19.587-15.923 35.822-35.493 36.191z"/></g></g></svg>