
<svg xmlns="http://www.w3.org/2000/svg" fill="#00bfd6"  viewBox="0 0 512 512" width="40" height="40">
<path d="M136,456a24.027,24.027,0,0,0,24-24V336a24,24,0,0,0-48,0v96A24.027,24.027,0,0,0,136,456Zm-8-120a8,8,0,0,1,16,0v96a8,8,0,0,1-16,0Z"/>
<path d="M216,456a24.027,24.027,0,0,0,24-24V336a24,24,0,0,0-48,0v96A24.027,24.027,0,0,0,216,456Zm-8-120a8,8,0,0,1,16,0v96a8,8,0,0,1-16,0Z"/><path d="M296,456a24.027,24.027,0,0,0,24-24V336a24,24,0,0,0-48,0v96A24.027,24.027,0,0,0,296,456Zm-8-120a8,8,0,0,1,16,0v96a8,8,0,0,1-16,0Z"/><path d="M376,456a24.027,24.027,0,0,0,24-24V336a24,24,0,0,0-48,0v96A24.027,24.027,0,0,0,376,456Zm-8-120a8,8,0,0,1,16,0v96a8,8,0,0,1-16,0Z"/><path d="M464,216h0a85.1,85.1,0,0,0-24-59.259V128a8,8,0,0,0-8-8h-4.687l10.343-10.343a30.627,30.627,0,0,0-43.313-43.314L340.686,120H328V96a8,8,0,0,0-1.6-4.8L304,61.333V32a8,8,0,0,0-8-8H192a8,8,0,0,0-8,8V61.333L161.6,91.2l.007.006A7.948,7.948,0,0,0,160,96v28.671a32.649,32.649,0,0,0-16-4.649V88a8,8,0,0,0-8-8H88a8,8,0,0,0-8,8v32.022a32.9,32.9,0,0,0-32,32.845V216a32,32,0,0,0,0,64h1.136L75.155,449.126A45.6,45.6,0,0,0,120.469,488H391.531a45.6,45.6,0,0,0,45.314-38.875L462.864,280H464a32,32,0,0,0,0-64Zm-84.686-48h36.121a86.176,86.176,0,0,0-15.409,48H331.314Zm53.028,4.183A69.159,69.159,0,0,1,448,216h-31.97A70.111,70.111,0,0,1,432.342,172.183ZM424,136v16H395.313l16-16ZM405.656,77.657a14.628,14.628,0,1,1,20.687,20.686l-160,160a14.628,14.628,0,1,1-20.687-20.686ZM280,72,268,88H184l12-16ZM176,104h88v92.686L244.687,216H176V104Zm136,44.686V136h12.686ZM312,120h-8a8,8,0,0,0-8,8v32a7.955,7.955,0,0,0,.936,3.751L280,180.686V98.667l16-21.333,16,21.333ZM288,40V56H200V40ZM128,96v24H96V96ZM64,200h80V184H64V152.867A16.885,16.885,0,0,1,80.867,136h62.266A16.885,16.885,0,0,1,160,152.867V216H64ZM32,248a16.019,16.019,0,0,1,16-16H229.878a30.66,30.66,0,0,0,0,32H48A16.019,16.019,0,0,1,32,248ZM421.03,446.692A29.685,29.685,0,0,1,391.531,472H120.469a29.685,29.685,0,0,1-29.5-25.307L65.325,280h381.35ZM464,264H283.314l32-32H464a16,16,0,0,1,0,32Z"/>
</svg>
