<svg fill="#00bfd6" enable-background="new 0 0 512 512" viewBox="0 0 512 512" width="40" height="40" xmlns="http://www.w3.org/2000/svg"><g><path  d="m467 0h-422c-24.813 0-45 20.187-45 45v40c0 19.926 13.023 36.858 31 42.759v369.241c0 8.284 6.716 15 15 15s15-6.716 15-15v-27h30v27c0 8.284 6.716 15 15 15s15-6.716 15-15v-27h30v27c0 8.284 6.716 15 15 15s15-6.716 15-15v-27h30v27c0 8.284 6.716 15 15 15s15-6.716 15-15v-27h30v27c0 8.284 6.716 15 15 15s15-6.716 15-15v-27h30v27c0 8.284 6.716 15 15 15s15-6.716 15-15v-27h30v27c0 8.284 6.716 15 15 15s15-6.716 15-15v-27h30v27c0 8.284 6.716 15 15 15s15-6.716 15-15v-369.241c17.977-5.901 31-22.833 31-42.759v-40c0-24.813-20.187-45-45-45zm-406 130h30v265c0 8.284 6.716 15 15 15h300c8.284 0 15-6.716 15-15v-265h30v310h-390zm94.393 64.393c-5.858 5.858-5.858 15.355 0 21.213l90 90c5.858 5.858 15.355 5.858 21.213 0l90-90c5.858-5.858 5.858-15.355 0-21.213l-64.393-64.393h98.787v181.352c-34.863 6.237-62.411 33.785-68.648 68.648h-132.704c-6.237-34.863-33.785-62.411-68.648-68.648v-181.352h98.787zm100.607-58.18 68.787 68.787-68.787 68.787-68.787-68.787zm135 205.883v37.904h-37.904c5.193-18.285 19.619-32.711 37.904-37.904zm-270 0c18.285 5.192 32.711 19.619 37.904 37.904h-37.904zm361-257.096c0 8.271-6.729 15-15 15h-422c-8.271 0-15-6.729-15-15v-40c0-8.271 6.729-15 15-15h422c8.271 0 15 6.729 15 15z"/></g></svg>