<svg fill="#00bfd6" enable-background="new 0 0 511.969 511.969" viewBox="0 0 511.969 511.969" width="40" height="40" xmlns="http://www.w3.org/2000/svg"><path d="m511.969 47.531c0-12.698-4.945-24.638-13.925-33.617-18.537-18.537-48.698-18.537-67.234 0l-25.438 25.438-15.098-15.098-46.024 46.023-9.375-9.375c-9.789-9.789-22.804-15.18-36.647-15.18s-26.858 5.391-36.647 15.18l-106.65 106.65 21.213 21.213 106.65-106.65c4.123-4.122 9.604-6.393 15.434-6.393s11.312 2.271 15.434 6.393l9.375 9.375-296.253 296.253-26.784 124.214 124.215-26.782 363.49-363.49-15.099-15.098 25.437-25.438c8.98-8.979 13.926-20.918 13.926-33.618zm-450.241 347.694 282.522-282.522 55.005 55.005-282.522 282.522zm-12.353 30.073 37.285 37.285-47.534 10.249zm371.093-278.803-55.005-55.005 24.81-24.81 55.005 55.005zm56.363-86.559-25.438 25.438-24.809-24.809 25.438-25.438c6.84-6.839 17.97-6.839 24.808 0 3.313 3.313 5.138 7.719 5.138 12.404s-1.824 9.091-5.137 12.405z"/></svg>