<?xml version="1.0" standalone="no"?>
<svg version="1.0" xmlns="http://www.w3.org/2000/svg"
height="25px" width="25px" viewBox="0 0 3000.000000 3000.000000"
 preserveAspectRatio="xMidYMid meet">

<g transform="translate(0.000000,3000.000000) scale(0.100000,-0.100000)"
fill="#a1a3a8" stroke="none">
<path d="M9285 28749 c-566 -42 -1115 -191 -1620 -439 -1046 -515 -1838 -1425
-2193 -2520 -42 -129 -706 -2590 -700 -2595 2 -2 52 56 112 127 320 382 886
970 1236 1284 1324 1191 2784 2069 4429 2664 770 278 1658 505 2446 626 241
36 278 43 260 50 -91 31 -2694 704 -2817 728 -379 76 -787 102 -1153 75z"/>
<path d="M14750 26914 c-669 -30 -1225 -92 -1805 -200 -2195 -407 -4227 -1408
-5901 -2905 -180 -161 -718 -696 -875 -869 -960 -1065 -1711 -2259 -2235
-3555 -1274 -3153 -1134 -6707 383 -9745 495 -992 1097 -1873 1852 -2710 157
-173 695 -708 875 -869 1167 -1044 2530 -1861 3981 -2384 992 -358 2000 -581
3050 -676 431 -39 583 -45 1120 -45 537 0 688 6 1120 45 2469 223 4797 1187
6701 2775 282 235 473 411 795 733 309 310 420 428 630 671 845 985 1533 2112
2015 3305 734 1818 1006 3784 793 5745 -185 1706 -735 3337 -1627 4823 -395
660 -864 1291 -1401 1887 -155 172 -693 706 -875 869 -1126 1009 -2418 1793
-3838 2331 -235 90 -688 239 -938 310 -872 247 -1670 383 -2640 450 -151 11
-1029 21 -1180 14z m-2602 -3218 c815 -106 1522 -456 2077 -1027 534 -549 854
-1219 951 -1994 36 -284 21 -691 -37 -1000 -260 -1396 -1364 -2489 -2776
-2750 -380 -70 -826 -74 -1213 -9 -954 158 -1800 711 -2333 1524 -288 440
-468 938 -532 1475 -21 169 -24 528 -7 695 50 473 186 918 404 1314 239 435
578 821 989 1124 482 356 1094 592 1684 651 61 6 126 13 145 15 83 10 532 -3
648 -18z m8602 -1647 c1211 -109 2286 -856 2810 -1953 180 -377 281 -748 321
-1186 14 -156 6 -532 -16 -690 -87 -643 -327 -1211 -723 -1710 -107 -134 -426
-449 -562 -554 -520 -402 -1095 -639 -1755 -722 -170 -22 -584 -25 -750 -6
-842 97 -1551 437 -2127 1019 -265 267 -450 523 -618 855 -264 518 -382 1043
-367 1621 6 233 23 388 68 604 209 1011 872 1878 1799 2352 602 308 1240 431
1920 370z m-5355 -5699 c300 -51 582 -193 801 -402 306 -293 474 -683 474
-1099 0 -711 -493 -1318 -1205 -1485 -112 -27 -134 -28 -335 -28 -184 0 -229
3 -313 22 -556 124 -989 510 -1155 1032 -57 180 -67 247 -67 460 0 168 3 210
23 298 71 317 196 548 416 768 223 222 478 362 772 423 133 27 136 28 316 30
116 1 186 -4 273 -19z m-5065 -1710 c994 -113 1861 -611 2443 -1402 287 -391
490 -848 591 -1333 49 -238 61 -369 61 -670 0 -307 -12 -430 -66 -692 -267
-1293 -1265 -2319 -2564 -2638 -279 -69 -518 -97 -820 -97 -231 -1 -376 11
-595 48 -1391 233 -2499 1283 -2803 2654 -96 430 -102 922 -16 1360 107 550
336 1046 687 1490 107 134 426 449 562 554 567 439 1220 688 1940 740 93 7
479 -3 580 -14z m8675 -1655 c691 -73 1305 -323 1838 -748 123 -98 350 -318
456 -442 645 -754 933 -1736 792 -2700 -106 -720 -424 -1365 -931 -1888 -674
-696 -1607 -1078 -2575 -1054 -306 8 -529 38 -810 112 -481 125 -908 340
-1300 651 -140 111 -415 386 -529 529 -344 431 -580 935 -686 1465 -46 232
-63 408 -64 660 0 240 10 360 50 589 259 1504 1502 2657 3047 2825 169 19 540
19 712 1z"/>
<path d="M23357 25214 c1110 -873 2085 -1930 2858 -3099 323 -489 589 -954
846 -1480 594 -1215 988 -2496 1183 -3843 l33 -227 16 55 c20 69 728 2705 757
2819 132 521 163 1067 89 1606 -202 1485 -1180 2762 -2569 3355 -272 117 -488
179 -1938 559 -777 204 -1415 371 -1418 371 -3 0 62 -52 143 -116z"/>
<path d="M1972 12788 c-6 -24 -151 -563 -322 -1198 -170 -635 -321 -1204 -335
-1265 -172 -768 -129 -1563 126 -2301 397 -1150 1261 -2078 2379 -2554 179
-76 386 -148 595 -205 351 -96 2457 -646 2461 -643 2 3 -54 50 -124 105 -592
469 -1281 1135 -1797 1738 -992 1159 -1772 2479 -2309 3904 -282 748 -485
1495 -636 2336 -12 66 -23 121 -25 123 -1 1 -7 -17 -13 -40z"/>
<path d="M25687 7010 c-50 -71 -279 -354 -411 -509 -415 -489 -930 -1010
-1411 -1427 -1867 -1620 -4115 -2678 -6550 -3084 -137 -23 -251 -43 -252 -44
-4 -4 2671 -704 2792 -731 479 -107 1003 -132 1490 -69 801 103 1541 416 2175
919 649 515 1145 1230 1398 2015 41 128 805 2960 800 2965 -2 2 -15 -14 -31
-35z"/>
</g>
</svg>
