<svg enable-background="new 0 0 512 512" height="15" viewBox="0 0 512 512" width="15" fill="#616161" xmlns="http://www.w3.org/2000/svg"><g><path d="m183.773 272.936c0-4.138 3.345-7.482 7.483-7.482 4.139 0 7.512 3.345 7.512 7.482v93.432c9.808 0 27.723-.113 27.779-.113 4.139-.028 7.484 3.316 7.512 7.427 0 4.139-3.317 7.483-7.456 7.512h-34.639c-4.394.085-8.192-3.033-8.192-7.455v-100.803zm215.69-122.854v-33.279h-286.898v33.279h21.628c4.139 0 7.483 3.374 7.483 7.513v30.841h228.645v-30.841c0-4.139 3.373-7.513 7.512-7.513zm14.996-33.279v33.279h21.628c4.139 0 7.483 3.374 7.483 7.513v48.189c8.787 4.961 16.951 10.886 24.378 17.633 3.034 2.778 3.261 7.512.483 10.573-2.779 3.061-7.514 3.288-10.574.51-10.801-9.836-23.557-17.801-37.219-23.075-13.267-5.158-27.695-7.993-42.805-7.993h-243.64c-31.749 0-61.853 12.7-84.19 35.009-21.6 21.628-35.008 51.421-35.008 84.189 0 14.77 2.721 28.942 7.711 42.01 5.187 13.635 12.784 26.08 22.252 36.795 2.721 3.09 2.438 7.795-.652 10.545-3.09 2.722-7.795 2.438-10.545-.652-10.687-12.075-19.248-26.078-25.059-41.358-5.612-14.742-8.702-30.73-8.702-47.341 0-36.907 15.109-70.47 39.402-94.791 8.617-8.589 18.369-16.045 29.027-22.083v-48.16c0-4.139 3.373-7.513 7.512-7.513h21.629v-33.279h-90.058c-4.139 0-7.512-3.345-7.512-7.512v-46.573c0-4.139 3.374-7.512 7.512-7.512h231.508c4.139 0 7.512 3.373 7.512 7.512s-3.373 7.483-7.512 7.483h-224.024v31.606h482.009v-31.606h-224.026c-4.139 0-7.483-3.345-7.483-7.483 0-4.139 3.345-7.512 7.483-7.512h231.537c4.139 0 7.483 3.373 7.483 7.512v46.573c0 4.167-3.345 7.512-7.483 7.512zm14.116 81.667v-33.363h-43.257v23.556c14.882.821 29.481 4.138 43.257 9.807zm-301.893-9.808v-23.556h-43.257v33.335c13.493-5.527 28.035-8.957 43.257-9.779zm351.756 70.243c-2.211-3.486-1.19-8.107 2.296-10.318 3.459-2.211 8.079-1.189 10.29 2.269 6.746 10.573 12.047 22.139 15.647 34.44 3.458 11.906 5.329 24.436 5.329 37.333 0 36.908-15.081 70.442-39.401 94.764-24.322 24.321-57.856 39.401-94.765 39.401h-243.64c-13.266 0-26.079-1.955-38.24-5.584-12.501-3.742-24.293-9.326-35.065-16.385-3.458-2.268-4.422-6.916-2.154-10.346 2.267-3.459 6.916-4.422 10.347-2.154 9.496 6.236 19.984 11.168 31.153 14.514 10.744 3.23 22.139 4.96 33.959 4.96h243.64c32.769 0 62.561-13.407 84.162-35.008 21.601-21.629 35.009-51.422 35.009-84.162 0-11.564-1.645-22.705-4.706-33.194-3.175-10.885-7.88-21.175-13.861-30.53zm-214.643 14.031c0-4.138 3.373-7.482 7.512-7.482s7.484 3.345 7.484 7.482v69.422c0 4.394 1.076 8.022 3.004 11.083 2.126 3.317 5.301 6.152 9.355 8.76 1.956 1.247 4.224 2.324 6.833 3.061 2.381.681 4.96 1.077 7.738 1.077 2.522 0 4.847-.283 7.03-.766 2.324-.539 4.393-1.304 6.264-2.268 4.933-2.467 8.873-5.527 11.424-9.241 2.211-3.231 3.459-7.143 3.459-11.792v-69.337c0-4.138 3.345-7.482 7.483-7.482 4.167 0 7.512 3.345 7.512 7.482v69.337c0 7.824-2.183 14.514-6.095 20.211-4.054 5.953-9.921 10.602-17.036 14.201-2.92 1.446-6.123 2.665-9.666 3.459-3.175.736-6.604 1.134-10.375 1.134-4.365 0-8.307-.596-11.85-1.616-3.997-1.134-7.568-2.834-10.743-4.875-5.925-3.771-10.659-8.079-13.976-13.295-3.458-5.471-5.357-11.735-5.357-19.134zm-116.647 2.411c3.431 2.324 4.338 6.973 2.013 10.403-2.296 3.43-6.974 4.337-10.404 2.013-3.515-2.382-7.37-4.252-11.423-5.471-3.912-1.22-8.135-1.843-12.586-1.843-11.849 0-22.593 4.79-30.359 12.558-7.767 7.768-12.558 18.511-12.558 30.359 0 11.878 4.79 22.593 12.558 30.359 7.767 7.767 18.51 12.586 30.359 12.586 5.358 0 10.375-.964 14.797-2.948 4.224-1.899 8.022-4.762 11.253-8.589 2.637-3.175 7.37-3.601 10.546-.936 3.175 2.636 3.572 7.37.936 10.545-4.706 5.612-10.347 9.808-16.64 12.614-6.463 2.891-13.493 4.309-20.892 4.309-15.988 0-30.473-6.491-40.961-16.98-10.489-10.46-16.952-24.945-16.952-40.961 0-15.987 6.463-30.473 16.952-40.961 10.488-10.488 24.973-16.951 40.961-16.951 5.839 0 11.509.878 16.923 2.522 5.613 1.731 10.828 4.225 15.477 7.372zm308.044 71.178c0 9.581-3.884 18.255-10.148 24.52-6.265 6.265-14.939 10.148-24.52 10.148l-34.412.028c-4.621.028-7.484-2.835-7.484-7.512 0-33.591 0-67.182 0-100.773 0-4.138 3.345-7.482 7.484-7.482h29.31c8.477 0 16.158 3.43 21.714 8.985 5.556 5.556 8.985 13.237 8.985 21.714 0 7.909-2.976 15.138-7.908 20.58 2.494 1.474 4.791 3.26 6.832 5.301 6.264 6.265 10.147 14.939 10.147 24.491zm-61.568-34.638c7.257 0 14.542-.029 21.798-.029 4.338 0 8.249-1.757 11.112-4.592 2.835-2.835 4.592-6.775 4.592-11.112 0-4.338-1.757-8.277-4.592-11.112s-6.774-4.592-11.112-4.592h-21.798zm40.819 48.556c3.543-3.571 5.754-8.476 5.754-13.918 0-5.414-2.211-10.318-5.754-13.89-3.572-3.544-8.477-5.755-13.919-5.755l-26.9.029v39.345c4.989-.028 13.267-.057 26.9-.057 5.443.001 10.347-2.211 13.919-5.754z"/></g></svg>