<svg version="1.1" id="Capa_1" xmlns="http://www.w3.org/2000/svg" x="0px" y="0px"
	                                        viewBox="0 0 512.061 512.061" height="15" width="15" fill="#616161" >
                                            <g>
                                            	<g>
                                            		<path d="M510.991,314.59l-22.496-58.56l22.464-58.592c2.496-6.464,0.512-13.824-4.864-18.176l-48.736-39.488l-9.856-61.984
                                            			c-1.088-6.816-6.464-12.192-13.28-13.28l-61.984-9.856L332.751,5.918c-4.352-5.376-11.68-7.328-18.176-4.864l-58.56,22.496
                                            			L197.423,1.086c-6.464-2.496-13.792-0.544-18.144,4.864l-39.488,48.736l-61.984,9.856c-6.816,1.088-12.192,6.464-13.28,13.28
                                            			l-9.856,61.984L5.935,179.294c-5.376,4.352-7.328,11.68-4.864,18.144l22.464,58.592L1.071,314.622
                                            			c-2.464,6.464-0.512,13.792,4.864,18.144l48.736,39.488l9.856,61.984c1.088,6.816,6.464,12.192,13.28,13.28l61.984,9.856
                                            			l39.488,48.736c4.384,5.408,11.712,7.392,18.176,4.864l58.56-22.464l58.592,22.464c1.856,0.704,3.808,1.056,5.728,1.056
                                            			c4.704,0,9.344-2.08,12.448-5.92l39.488-48.736l61.984-9.856c6.816-1.088,12.192-6.464,13.28-13.28l9.856-61.984l48.736-39.488
                                            			C511.503,328.414,513.455,321.054,510.991,314.59z M456.367,261.758l20.512,53.44l-44.512,36.032
                                            			c-3.072,2.496-5.12,6.016-5.728,9.92l-8.992,56.544l-56.544,8.992c-3.904,0.608-7.424,2.656-9.92,5.728l-35.968,44.512
                                            			l-53.44-20.512c-1.856-0.672-3.808-1.056-5.76-1.056c-1.952,0-3.904,0.352-5.728,1.056l-53.44,20.512l-36.032-44.512
                                            			c-2.496-3.072-6.016-5.12-9.92-5.728l-56.544-8.992l-8.992-56.544c-0.608-3.904-2.656-7.424-5.728-9.92l-44.512-36l20.512-53.44
                                            			c1.408-3.712,1.408-7.808-0.032-11.488l-20.48-53.472l44.512-36.032c3.072-2.496,5.12-6.016,5.728-9.92l8.992-56.544l56.544-8.992
                                            			c3.904-0.608,7.424-2.656,9.92-5.728l36-44.48l53.44,20.512c3.68,1.408,7.776,1.408,11.456,0l53.44-20.512l36.032,44.512
                                            			c2.496,3.072,6.016,5.12,9.92,5.728l56.544,8.992l8.992,56.544c0.608,3.904,2.656,7.424,5.728,9.92l44.512,36.032l-20.512,53.44
                                            			C454.959,253.982,454.959,258.078,456.367,261.758z"/>
                                            	</g>
                                            </g>
                                            <g>
                                            	<g>
                                            		<path d="M208.015,128.03c-26.464,0-48,21.536-48,48s21.536,48,48,48s48-21.536,48-48S234.479,128.03,208.015,128.03z
                                            			 M208.015,192.03c-8.832,0-16-7.168-16-16c0-8.832,7.168-16,16-16c8.832,0,16,7.168,16,16
                                            			C224.015,184.862,216.847,192.03,208.015,192.03z"/>
                                            	</g>
                                            </g>
                                            <g>
                                            	<g>
                                            		<path d="M304.015,288.03c-26.464,0-48,21.536-48,48s21.536,48,48,48s48-21.536,48-48S330.479,288.03,304.015,288.03z
                                            			 M304.015,352.03c-8.832,0-16-7.168-16-16c0-8.832,7.168-16,16-16c8.832,0,16,7.168,16,16
                                            			C320.015,344.862,312.847,352.03,304.015,352.03z"/>
                                            	</g>
                                            </g>
                                            <g>
                                            	<g>
                                            		<path d="M345.327,131.038c-7.168-5.12-17.184-3.456-22.304,3.712l-160,224c-5.152,7.168-3.488,17.184,3.68,22.304
                                            			c2.816,2.016,6.08,2.976,9.312,2.976c4.992,0,9.92-2.336,13.024-6.688l160-224C354.191,146.142,352.495,136.158,345.327,131.038z"
                                            			/>
                                            	</g>
                                            </g>
                                        </svg>