<svg enable-background="new 0 0 512.102 512.102" height="15" viewBox="0 0 512.102 512.102" width="15" fill="#616161" xmlns="http://www.w3.org/2000/svg">
                                            <g>
                                                <path d="m412.838 359.138-5.008-31.724 58.868-14.162-31.611-51.641 48.966-35.613-48.966-35.613 31.611-51.641-58.868-14.161 9.441-59.806-59.806 9.442-14.161-58.869-51.831 31.73-35.422-47.08-35.422 47.08-51.832-31.729-14.161 58.869-59.807-9.442 9.443 59.806-58.869 14.161 31.611 51.641-48.966 35.613 48.966 35.613-31.611 51.641 58.869 14.161-5.009 31.724-81.24 121.861h82.672l37.928 31.037 79.9-105.829 1.914-1.172 35.613 48.966 35.613-48.966 1.913 1.171 79.907 105.895 37.93-31.102h82.664zm-279.359 109.924-22.072-18.063h-37.329l45.08-67.62 35.478-5.601 11.541 47.974zm150.218-104.077-27.646 38.012-27.646-38.012-40.088 24.539-10.993-45.699-46.428 7.33 7.33-46.428-45.699-10.993 24.539-40.087-38.013-27.646 38.013-27.646-24.539-40.087 45.699-10.993-7.33-46.428 46.428 7.33 10.993-45.699 39.896 24.422 27.838-36.999 27.838 36.999 39.896-24.422 10.993 45.699 46.429-7.33-7.33 46.428 45.698 10.993-24.539 40.088 38.013 27.646-38.013 27.646 24.539 40.087-45.698 10.993 7.33 46.428-46.429-7.33-10.993 45.699zm116.991 86.014-22.07 18.098-32.696-43.328 11.544-47.99 35.478 5.601 45.079 67.62h-37.335z"/><path d="m376.051 225.999c0-66.168-53.832-120-120-120s-120 53.832-120 120 53.832 120 120 120 120-53.832 120-120zm-120 90c-49.626 0-90-40.374-90-90s40.374-90 90-90 90 40.374 90 90-40.374 90-90 90z"/>
                                                <path d="m241.051 234.786-19.394-19.393-21.213 21.213 40.607 40.606 70.606-70.606-21.213-21.213z"/>
                                            </g>
                                        </svg>