
<svg version="1.1" xmlns="http://www.w3.org/2000/svg" width="15" height="15" x="0px" y="0px"
	 viewBox="0 0 512 512" >
<path style="fill:#1FCFC1;" d="M10.199,226.457v59.086c0,11.593,9.399,20.991,20.991,20.991h153.284
	c11.593,0,20.991,9.399,20.991,20.991v153.284c0,11.593,9.399,20.991,20.991,20.991h59.086c11.593,0,20.991-9.399,20.991-20.991
	V327.525c0-11.593,9.399-20.991,20.991-20.991h153.284c11.593,0,20.991-9.399,20.991-20.991v-59.086
	c0-11.593-9.399-20.991-20.991-20.991H327.524c-11.593,0-20.991-9.399-20.991-20.991V31.191c0-11.593-9.399-20.991-20.991-20.991
	h-59.086c-11.593,0-20.991,9.399-20.991,20.991v153.284c0,11.593-9.399,20.991-20.991,20.991H31.19
	C19.598,205.466,10.199,214.864,10.199,226.457z"/>
<g>
	<path style="fill:#4D4D4D;" d="M285.543,512h-59.086c-17.198,0-31.19-13.992-31.19-31.19V327.526
		c0-5.951-4.842-10.793-10.793-10.793H31.19c-17.198,0-31.19-13.992-31.19-31.19v-59.086c0-17.198,13.992-31.19,31.19-31.19h153.284
		c5.951,0,10.793-4.842,10.793-10.793V31.19c0-17.198,13.992-31.19,31.19-31.19h59.086c17.198,0,31.19,13.992,31.19,31.19v153.284
		c0,5.951,4.842,10.793,10.793,10.793H480.81c17.198,0,31.19,13.992,31.19,31.19v59.086c0,17.198-13.992,31.19-31.19,31.19H327.526
		c-5.951,0-10.793,4.842-10.793,10.793V480.81C316.733,498.008,302.741,512,285.543,512z M31.19,215.665
		c-5.95,0-10.792,4.842-10.792,10.792v59.086c0,5.95,4.842,10.792,10.792,10.792h153.284c17.199,0,31.191,13.992,31.191,31.191
		V480.81c0,5.95,4.842,10.792,10.792,10.792h59.086c5.95,0,10.792-4.842,10.792-10.792V327.526
		c0-17.199,13.992-31.191,31.191-31.191H480.81c5.95,0,10.792-4.842,10.792-10.792v-59.086c0-5.95-4.842-10.792-10.792-10.792
		H327.526c-17.199,0-31.191-13.992-31.191-31.191V31.19c0-5.95-4.842-10.792-10.792-10.792h-59.086
		c-5.95,0-10.792,4.842-10.792,10.792v153.284c0,17.199-13.992,31.191-31.191,31.191H31.19z"/>
	<path style="fill:#4D4D4D;" d="M472.223,245.801h-95.909c-5.632,0-10.199-4.567-10.199-10.199c0-5.632,4.567-10.199,10.199-10.199
		h95.909c5.632,0,10.199,4.567,10.199,10.199C482.422,241.234,477.855,245.801,472.223,245.801z"/>
	<path style="fill:#4D4D4D;" d="M345.753,245.801h-7.992c-5.632,0-10.199-4.567-10.199-10.199c0-5.632,4.567-10.199,10.199-10.199
		h7.992c5.632,0,10.199,4.567,10.199,10.199C355.952,241.234,351.385,245.801,345.753,245.801z"/>
</g>
</svg>
