<svg width="24px" height="24px" fill="#ef4056"
    xmlns="http://www.w3.org/2000/svg" viewBox="0 0 24 24">
    <path fill-rule="evenodd" d="M2 3.24C2 2.556 2.556 2 3.24 2H15c4 0 7 3 7 7v6c0 4-3 7-7 7H3.247a1.24 1.24 0 01-1.24-1.236L2 3.24zm3.354 8.453a.67.67 0 00-.135.974A8.818 8.818 0 0012 15.854c2.63 0 5.115-1.18 6.78-3.187a.67.67 0 00-.134-.974l-1.116-.78a.673.673 0 00-.897.118A6.119 6.119 0 0112 13.158a6.119 6.119 0 01-4.633-2.127.673.673 0 00-.897-.119l-1.116.78z" clip-rule="evenodd"></path>
</svg>